# xmcd
#
# Track frame offsets:
#	150
#	11659
#	22312
#	33709
#	48695
#	61264
#	75941
#	86624
#	99695
#	111358
#	121485
#	141365
#	153270
#	165185
#
# Disc length: 2410 seconds
#
# Revision: 1
# Processed by: cddbd v1.5.2PL0 Copyright (c) Steve Scherf et al.
# Submitted via: audiograbber 1.83.01
#
DISCID=b609680e
DTITLE=Various Artist - Berg- und Wanderlieder CD1
DYEAR=2012
DGENRE=Volksmusik
TTITLE0=Bergvagabunden
TTITLE1=Die Berge sind mein  Zuhaus´
TTITLE2=Ein Rucksack und ein Wanderstab
TTITLE3=Das schönste Bleamal auf der Alm
TTITLE4=Rennsteiglied
TTITLE5=Es klingt ein Lied über die Berge
TTITLE6=Steh i in steiler Felswand
TTITLE7=Wenn auf Bergeshöh´n
TTITLE8=An Rucksack voller Busserl
TTITLE9=Einen Jodler hör´i gern
TTITLE10=Die Gamslan schwarz und braun
TTITLE11=Ein Heller und ein BAtzen
TTITLE12=Zwei Bergkameraden
TTITLE13=Hörst du die Berge, sie rufen
EXTD=
EXTT0=
EXTT1=
EXTT2=
EXTT3=
EXTT4=
EXTT5=
EXTT6=
EXTT7=
EXTT8=
EXTT9=
EXTT10=
EXTT11=
EXTT12=
EXTT13=
PLAYORDER=
